<svg width="30" height="34" viewBox="0 0 30 34" fill="none" xmlns="http://www.w3.org/2000/svg">
<g clip-path="url(#clip0_1_7)">
<path d="M29.3628 12.7271H1.85255C1.50742 12.7271 1.22729 13.0411 1.22729 13.4281V30.2525C1.22729 32.1845 2.62909 33.7576 4.35344 33.7576H26.8618C28.5862 33.7576 29.9879 32.1845 29.9879 30.2525V13.4281C29.988 13.0411 29.7079 12.7271 29.3628 12.7271ZM28.7375 30.2525C28.7375 31.412 27.896 32.3555 26.8619 32.3555H4.35349C3.31934 32.3555 2.4778 31.412 2.4778 30.2525V14.1291H28.7375V30.2525Z" fill="white"/>
<path d="M29.968 6.23978L28.9038 1.71263C28.6588 0.612012 27.6559 -0.0791701 26.6618 0.173196L1.46991 6.8749C0.974729 7.00109 0.555804 7.33896 0.289455 7.8241C0.0231065 8.30919 -0.0556727 8.88122 0.0693541 9.43642L1.24729 14.6576C1.31734 14.9744 1.57243 15.1862 1.8525 15.1862C1.9025 15.1862 1.95378 15.1806 2.00753 15.1651C2.34141 15.0712 2.54398 14.6899 2.45893 14.3141L2.39018 14.0099L29.5015 7.10348C29.6665 7.06004 29.8103 6.94503 29.8979 6.78244C29.9868 6.61978 30.0105 6.42347 29.968 6.23978ZM2.08391 12.6499L1.28111 9.09573C1.23985 8.91066 1.26734 8.72001 1.35491 8.55735C1.44371 8.39614 1.58374 8.28395 1.75379 8.23906L26.9456 1.5388C26.9906 1.52618 27.0369 1.5206 27.0819 1.5206C27.362 1.5206 27.6209 1.73649 27.6921 2.06036L28.5937 5.89495L2.08391 12.6499Z" fill="white"/>
<path d="M7.13458 12.7999C6.82444 12.6303 6.45182 12.7677 6.29427 13.114L3.79332 18.7221C3.63951 19.0684 3.76454 19.489 4.07344 19.6629C4.16471 19.7134 4.25978 19.7372 4.35356 19.7372C4.5824 19.7372 4.80373 19.5956 4.91375 19.3489L7.4147 13.7408C7.56851 13.3944 7.44342 12.9738 7.13458 12.7999Z" fill="white"/>
<path d="M13.3857 12.7999C13.0768 12.6303 12.7017 12.7677 12.5466 13.114L10.0456 18.7221C9.89183 19.0684 10.0169 19.489 10.3258 19.6629C10.417 19.7134 10.5121 19.7372 10.6059 19.7372C10.8347 19.7372 11.0561 19.5956 11.1648 19.3489L13.6658 13.7408C13.8195 13.3944 13.6945 12.9738 13.3857 12.7999Z" fill="white"/>
<path d="M19.638 12.7999C19.3304 12.6303 18.9552 12.7677 18.7989 13.114L16.298 18.7221C16.1441 19.0684 16.2692 19.489 16.5781 19.6629C16.6693 19.7134 16.7644 19.7372 16.8582 19.7372C17.087 19.7372 17.3084 19.5956 17.4172 19.3489L19.9181 13.7408C20.0719 13.3944 19.9468 12.9738 19.638 12.7999Z" fill="white"/>
<path d="M25.8903 12.7999C25.5802 12.6303 25.2076 12.7677 25.0512 13.114L22.5503 18.7221C22.3965 19.0684 22.5215 19.489 22.8304 19.6629C22.9217 19.7134 23.0167 19.7372 23.1105 19.7372C23.3394 19.7372 23.5607 19.5956 23.6695 19.3489L26.1704 13.7408C26.3242 13.3944 26.1992 12.9738 25.8903 12.7999Z" fill="white"/>
<path d="M29.3628 18.3352H1.85255C1.50742 18.3352 1.22729 18.6493 1.22729 19.0362C1.22729 19.4232 1.50742 19.7373 1.85255 19.7373H29.3628C29.7092 19.7373 29.988 19.4232 29.988 19.0362C29.988 18.6493 29.7079 18.3352 29.3628 18.3352Z" fill="white"/>
<path d="M7.8986 11.5031L3.592 6.67447C3.34816 6.40107 2.95175 6.40107 2.7079 6.67447C2.46406 6.94787 2.46406 7.39233 2.7079 7.66573L7.0145 12.4957C7.13707 12.6317 7.29709 12.7004 7.45717 12.7004C7.61724 12.7004 7.77727 12.6318 7.8986 12.4943C8.14244 12.2209 8.14244 11.7765 7.8986 11.5031Z" fill="white"/>
<path d="M14.0158 9.94537L9.70553 5.11676C9.46169 4.84336 9.06527 4.84336 8.82143 5.11676C8.57759 5.39016 8.57759 5.83462 8.82143 6.10802L13.1305 10.9366C13.2531 11.0726 13.4131 11.1414 13.5732 11.1414C13.7333 11.1414 13.8933 11.0727 14.0159 10.9366C14.2597 10.6632 14.2597 10.2188 14.0158 9.94537Z" fill="white"/>
<path d="M20.1281 8.38773L15.8253 3.55774C15.5814 3.28434 15.185 3.28434 14.9412 3.55774C14.6973 3.83114 14.6973 4.2756 14.9412 4.549L19.244 9.37899C19.3666 9.51497 19.5266 9.58371 19.6867 9.58371C19.8468 9.58371 20.0068 9.51641 20.1281 9.37899C20.372 9.10559 20.372 8.66113 20.1281 8.38773Z" fill="white"/>
<path d="M26.2379 6.83146L21.9338 2.00146C21.69 1.72807 21.2935 1.72807 21.0497 2.00146C20.8059 2.27486 20.8059 2.71933 21.0497 2.99273L25.3538 7.82272C25.4763 7.95869 25.6364 8.02744 25.7964 8.02744C25.9565 8.02744 26.1165 7.95876 26.2379 7.82272C26.4818 7.54932 26.4818 7.10485 26.2379 6.83146Z" fill="white"/>
</g>
<defs>
<clipPath id="clip0_1_7">
<rect width="30" height="33.6364" fill="white" transform="translate(0 0.121216)"/>
</clipPath>
</defs>
</svg>
